<svg width="132" height="132" viewBox="0 0 132 132" fill="none" xmlns="http://www.w3.org/2000/svg">
<g clip-path="url(#clip0_65_13)">
<path d="M52.36 16.5C54.0087 16.5002 55.6363 16.871 57.1224 17.585C58.6085 18.299 59.9151 19.338 60.9455 20.625L68.6455 30.25H110C112.917 30.25 115.715 31.4089 117.778 33.4718C119.841 35.5347 121 38.3326 121 41.25V104.5C121 107.417 119.841 110.215 117.778 112.278C115.715 114.341 112.917 115.5 110 115.5H22C19.0826 115.5 16.2847 114.341 14.2218 112.278C12.1589 110.215 11 107.417 11 104.5V27.5C11 24.5826 12.1589 21.7847 14.2218 19.7218C16.2847 17.6589 19.0826 16.5 22 16.5H52.36ZM52.36 27.5H22V104.5H110V41.25H68.64C66.9913 41.2498 65.3637 40.879 63.8776 40.165C62.3915 39.451 61.0849 38.412 60.0545 37.125L52.36 27.5ZM69.8885 55.9515L81.554 67.617C82.0793 68.1244 82.4983 68.7313 82.7866 69.4023C83.0748 70.0733 83.2265 70.795 83.2329 71.5253C83.2392 72.2556 83.1001 72.9798 82.8235 73.6557C82.547 74.3317 82.1386 74.9458 81.6222 75.4622C81.1058 75.9786 80.4917 76.387 79.8157 76.6635C79.1398 76.9401 78.4156 77.0792 77.6853 77.0729C76.955 77.0665 76.2333 76.9148 75.5623 76.6266C74.8913 76.3383 74.2844 75.9193 73.777 75.394L71.5 73.117V88C71.5 89.4587 70.9205 90.8576 69.8891 91.8891C68.8576 92.9205 67.4587 93.5 66 93.5C64.5413 93.5 63.1424 92.9205 62.1109 91.8891C61.0795 90.8576 60.5 89.4587 60.5 88V73.117L58.223 75.394C57.7156 75.9193 57.1087 76.3383 56.4377 76.6266C55.7667 76.9148 55.045 77.0665 54.3147 77.0729C53.5844 77.0792 52.8602 76.9401 52.1843 76.6635C51.5083 76.387 50.8942 75.9786 50.3778 75.4622C49.8614 74.9458 49.453 74.3317 49.1765 73.6557C48.8999 72.9798 48.7608 72.2556 48.7671 71.5253C48.7735 70.795 48.9252 70.0733 49.2134 69.4023C49.5017 68.7313 49.9207 68.1244 50.446 67.617L62.106 55.9515C62.6168 55.4401 63.2234 55.0345 63.8911 54.7577C64.5588 54.4809 65.2745 54.3384 65.9973 54.3384C66.72 54.3384 67.4357 54.4809 68.1034 54.7577C68.7711 55.0345 69.3777 55.4401 69.8885 55.9515Z" fill="white"/>
</g>
<defs>
<clipPath id="clip0_65_13">
<rect width="132" height="132" fill="white"/>
</clipPath>
</defs>
</svg>
