<svg width="248" height="55" viewBox="0 0 248 55" fill="none" xmlns="http://www.w3.org/2000/svg">
<path d="M16.1941 42H12.6341V16.6H4.31406V13.44H24.4341V16.6H16.1941V42ZM37.5706 20.56V42H34.0906V20.56H37.5706ZM35.8506 12.52C36.384 12.52 36.8506 12.7067 37.2506 13.08C37.6506 13.4267 37.8506 13.9867 37.8506 14.76C37.8506 15.5067 37.6506 16.0667 37.2506 16.44C36.8506 16.8133 36.384 17 35.8506 17C35.2906 17 34.8106 16.8133 34.4106 16.44C34.0106 16.0667 33.8106 15.5067 33.8106 14.76C33.8106 13.9867 34.0106 13.4267 34.4106 13.08C34.8106 12.7067 35.2906 12.52 35.8506 12.52ZM59.7344 20.16C62.1344 20.16 63.9477 20.7867 65.1744 22.04C66.4277 23.2667 67.0544 25.2667 67.0544 28.04V42H63.5744V28.28C63.5744 26.5467 63.2144 25.2533 62.4944 24.4C61.7744 23.5467 60.6677 23.12 59.1744 23.12C56.9877 23.12 55.4677 23.7867 54.6144 25.12C53.7877 26.4533 53.3744 28.3733 53.3744 30.88V42H49.8944V20.56H52.6944L53.2144 23.48H53.4144C53.841 22.7333 54.3877 22.12 55.0544 21.64C55.721 21.1333 56.4544 20.76 57.2544 20.52C58.0544 20.28 58.881 20.16 59.7344 20.16ZM76.1338 20.56H79.8938L84.1738 32.76C84.4404 33.48 84.6804 34.1733 84.8938 34.84C85.1071 35.5067 85.2938 36.16 85.4538 36.8C85.6138 37.4133 85.7338 38.0133 85.8138 38.6H85.9338C86.0938 37.9333 86.3204 37.0667 86.6138 36C86.9338 34.9067 87.2671 33.8133 87.6138 32.72L91.6538 20.56H95.4538L86.7738 44.96C86.2938 46.2933 85.7204 47.4533 85.0538 48.44C84.4138 49.4533 83.6271 50.2267 82.6938 50.76C81.7604 51.32 80.6404 51.6 79.3338 51.6C78.7471 51.6 78.2138 51.56 77.7338 51.48C77.2804 51.4267 76.8938 51.36 76.5738 51.28V48.48C76.8404 48.5333 77.1738 48.5867 77.5738 48.64C77.9738 48.6933 78.3871 48.72 78.8138 48.72C79.5871 48.72 80.2538 48.56 80.8138 48.24C81.3738 47.9467 81.8538 47.5067 82.2538 46.92C82.6538 46.36 82.9871 45.6933 83.2538 44.92L84.2538 42.08L76.1338 20.56ZM132.354 16.2C130.941 16.2 129.674 16.4667 128.554 17C127.434 17.5067 126.474 18.2667 125.674 19.28C124.901 20.2667 124.301 21.48 123.874 22.92C123.474 24.3333 123.274 25.9333 123.274 27.72C123.274 30.0667 123.608 32.1067 124.274 33.84C124.941 35.5733 125.941 36.9067 127.274 37.84C128.634 38.7733 130.314 39.24 132.314 39.24C133.488 39.24 134.594 39.1333 135.634 38.92C136.701 38.7067 137.754 38.44 138.794 38.12V41.24C137.781 41.64 136.741 41.9333 135.674 42.12C134.608 42.3067 133.328 42.4 131.834 42.4C129.088 42.4 126.794 41.8 124.954 40.6C123.141 39.4 121.781 37.6933 120.874 35.48C119.968 33.2667 119.514 30.6667 119.514 27.68C119.514 25.52 119.794 23.5467 120.354 21.76C120.914 19.9733 121.741 18.4267 122.834 17.12C123.928 15.8133 125.274 14.8133 126.874 14.12C128.474 13.4 130.314 13.04 132.394 13.04C133.754 13.04 135.074 13.1867 136.354 13.48C137.634 13.7733 138.794 14.1867 139.834 14.72L138.434 17.76C137.608 17.36 136.674 17 135.634 16.68C134.621 16.36 133.528 16.2 132.354 16.2ZM153.624 42H150.144V11.6H153.624V42ZM183.589 31.24C183.589 33.0267 183.362 34.6133 182.909 36C182.482 37.36 181.856 38.52 181.029 39.48C180.202 40.44 179.202 41.1733 178.029 41.68C176.856 42.16 175.549 42.4 174.109 42.4C172.776 42.4 171.536 42.16 170.389 41.68C169.269 41.1733 168.282 40.44 167.429 39.48C166.602 38.52 165.962 37.36 165.509 36C165.056 34.6133 164.829 33.0267 164.829 31.24C164.829 28.8667 165.202 26.8667 165.949 25.24C166.722 23.5867 167.816 22.3333 169.229 21.48C170.642 20.6 172.309 20.16 174.229 20.16C176.069 20.16 177.682 20.6 179.069 21.48C180.482 22.3333 181.589 23.5867 182.389 25.24C183.189 26.8667 183.589 28.8667 183.589 31.24ZM168.429 31.24C168.429 32.92 168.629 34.3867 169.029 35.64C169.429 36.8667 170.056 37.8133 170.909 38.48C171.762 39.1467 172.856 39.48 174.189 39.48C175.522 39.48 176.616 39.1467 177.469 38.48C178.322 37.8133 178.949 36.8667 179.349 35.64C179.776 34.3867 179.989 32.92 179.989 31.24C179.989 29.5333 179.776 28.08 179.349 26.88C178.949 25.68 178.322 24.76 177.469 24.12C176.616 23.4533 175.509 23.12 174.149 23.12C172.149 23.12 170.696 23.84 169.789 25.28C168.882 26.72 168.429 28.7067 168.429 31.24ZM211.762 20.56V42H208.962L208.442 39.16H208.282C207.855 39.9067 207.295 40.52 206.602 41C205.935 41.48 205.202 41.8267 204.402 42.04C203.602 42.28 202.762 42.4 201.882 42.4C200.282 42.4 198.935 42.1333 197.842 41.6C196.748 41.04 195.922 40.1867 195.362 39.04C194.828 37.8933 194.562 36.4133 194.562 34.6V20.56H198.082V34.36C198.082 36.0667 198.442 37.3467 199.162 38.2C199.882 39.0533 200.988 39.48 202.482 39.48C203.948 39.48 205.095 39.1867 205.922 38.6C206.775 37.9867 207.375 37.1067 207.722 35.96C208.095 34.7867 208.282 33.3733 208.282 31.72V20.56H211.762ZM231.202 42.4C228.722 42.4 226.722 41.48 225.202 39.64C223.709 37.7733 222.962 35 222.962 31.32C222.962 27.64 223.722 24.8667 225.242 23C226.762 21.1067 228.762 20.16 231.242 20.16C232.282 20.16 233.189 20.3067 233.962 20.6C234.735 20.8667 235.402 21.24 235.962 21.72C236.549 22.2 237.042 22.7333 237.442 23.32H237.682C237.655 22.9733 237.602 22.4667 237.522 21.8C237.469 21.1067 237.442 20.56 237.442 20.16V11.6H240.922V42H238.122L237.602 39.12H237.442C237.042 39.7333 236.549 40.2933 235.962 40.8C235.402 41.28 234.722 41.6667 233.922 41.96C233.149 42.2533 232.242 42.4 231.202 42.4ZM231.842 39.48C233.922 39.48 235.375 38.8667 236.202 37.64C237.055 36.3867 237.482 34.5067 237.482 32V31.36C237.482 28.6933 237.082 26.6533 236.282 25.24C235.482 23.8 233.989 23.08 231.802 23.08C230.042 23.08 228.722 23.84 227.842 25.36C226.989 26.8533 226.562 28.8667 226.562 31.4C226.562 33.96 226.989 35.9467 227.842 37.36C228.722 38.7733 230.055 39.48 231.842 39.48Z" fill="#FF48ED"/>
<line x1="33" y1="54" x2="242" y2="54" stroke="#FF48ED" stroke-width="2"/>
</svg>
