<svg width="26" height="26" viewBox="0 0 26 26" fill="none" xmlns="http://www.w3.org/2000/svg">
<g clip-path="url(#clip0_8_194)">
<path d="M11.375 21.6667C11.375 22.0977 11.5462 22.511 11.8509 22.8157C12.1557 23.1205 12.569 23.2917 13 23.2917C13.431 23.2917 13.8443 23.1205 14.149 22.8157C14.4538 22.511 14.625 22.0977 14.625 21.6667V14.625H21.6666C22.0976 14.625 22.5109 14.4538 22.8157 14.1491C23.1204 13.8443 23.2916 13.431 23.2916 13C23.2916 12.569 23.1204 12.1557 22.8157 11.851C22.5109 11.5462 22.0976 11.375 21.6666 11.375H14.625V4.33334C14.625 3.90237 14.4538 3.48904 14.149 3.1843C13.8443 2.87955 13.431 2.70834 13 2.70834C12.569 2.70834 12.1557 2.87955 11.8509 3.1843C11.5462 3.48904 11.375 3.90237 11.375 4.33334V11.375H4.33331C3.90234 11.375 3.48901 11.5462 3.18426 11.851C2.87952 12.1557 2.70831 12.569 2.70831 13C2.70831 13.431 2.87952 13.8443 3.18426 14.1491C3.48901 14.4538 3.90234 14.625 4.33331 14.625H11.375V21.6667Z" fill="white"/>
</g>
<defs>
<clipPath id="clip0_8_194">
<rect width="26" height="26" fill="white"/>
</clipPath>
</defs>
</svg>
