<svg width="46" height="46" viewBox="0 0 46 46" fill="none" xmlns="http://www.w3.org/2000/svg">
<g clip-path="url(#clip0_5_26)">
<path fill-rule="evenodd" clip-rule="evenodd" d="M20.125 3.83331C17.5271 3.83353 14.967 4.45501 12.6582 5.64589C10.3493 6.83678 8.35876 8.56253 6.85253 10.6792C5.34631 12.7958 4.3681 15.242 3.99952 17.8136C3.63094 20.3851 3.88268 23.0076 4.73374 25.4621C5.58479 27.9166 7.01049 30.132 8.89187 31.9235C10.7733 33.7149 13.0558 35.0305 15.549 35.7604C18.0422 36.4903 20.6738 36.6134 23.2243 36.1194C25.7748 35.6254 28.1701 34.5287 30.2105 32.9206L37.2102 39.9203C37.5717 40.2694 38.0558 40.4626 38.5584 40.4583C39.0609 40.4539 39.5416 40.2523 39.897 39.897C40.2523 39.5416 40.4539 39.0609 40.4583 38.5583C40.4627 38.0558 40.2695 37.5716 39.9203 37.2101L32.9207 30.2105C34.8143 27.8082 35.9934 24.9212 36.3229 21.8801C36.6525 18.839 36.1192 15.7665 34.7841 13.0143C33.449 10.2621 31.366 7.94141 28.7736 6.31776C26.1811 4.6941 23.1839 3.83311 20.125 3.83331ZM7.66666 20.125C7.66666 16.8208 8.97924 13.652 11.3156 11.3156C13.652 8.97922 16.8208 7.66665 20.125 7.66665C23.4292 7.66665 26.598 8.97922 28.9344 11.3156C31.2708 13.652 32.5833 16.8208 32.5833 20.125C32.5833 23.4291 31.2708 26.598 28.9344 28.9344C26.598 31.2707 23.4292 32.5833 20.125 32.5833C16.8208 32.5833 13.652 31.2707 11.3156 28.9344C8.97924 26.598 7.66666 23.4291 7.66666 20.125Z" fill="white"/>
</g>
<defs>
<clipPath id="clip0_5_26">
<rect width="46" height="46" fill="white"/>
</clipPath>
</defs>
</svg>
