<svg width="46" height="46" viewBox="0 0 46 46" fill="none" xmlns="http://www.w3.org/2000/svg">
<g clip-path="url(#clip0_5_30)">
<path fill-rule="evenodd" clip-rule="evenodd" d="M34.5 7.66667C34.5 7.15833 34.2981 6.67082 33.9386 6.31138C33.5792 5.95193 33.0917 5.75 32.5833 5.75C32.075 5.75 31.5875 5.95193 31.228 6.31138C30.8686 6.67082 30.6667 7.15833 30.6667 7.66667V9.58333H7.66667C7.15833 9.58333 6.67082 9.78527 6.31138 10.1447C5.95193 10.5042 5.75 10.9917 5.75 11.5C5.75 12.0083 5.95193 12.4958 6.31138 12.8553C6.67082 13.2147 7.15833 13.4167 7.66667 13.4167H30.6667V15.3333C30.6667 15.8417 30.8686 16.3292 31.228 16.6886C31.5875 17.0481 32.075 17.25 32.5833 17.25C33.0917 17.25 33.5792 17.0481 33.9386 16.6886C34.2981 16.3292 34.5 15.8417 34.5 15.3333V13.4167H38.3333C38.8417 13.4167 39.3292 13.2147 39.6886 12.8553C40.0481 12.4958 40.25 12.0083 40.25 11.5C40.25 10.9917 40.0481 10.5042 39.6886 10.1447C39.3292 9.78527 38.8417 9.58333 38.3333 9.58333H34.5V7.66667ZM7.66667 21.0833C7.15833 21.0833 6.67082 21.2853 6.31138 21.6447C5.95193 22.0042 5.75 22.4917 5.75 23C5.75 23.5083 5.95193 23.9958 6.31138 24.3553C6.67082 24.7147 7.15833 24.9167 7.66667 24.9167H11.5V26.8333C11.5 27.3417 11.7019 27.8292 12.0614 28.1886C12.4208 28.5481 12.9083 28.75 13.4167 28.75C13.925 28.75 14.4125 28.5481 14.772 28.1886C15.1314 27.8292 15.3333 27.3417 15.3333 26.8333V24.9167H38.3333C38.8417 24.9167 39.3292 24.7147 39.6886 24.3553C40.0481 23.9958 40.25 23.5083 40.25 23C40.25 22.4917 40.0481 22.0042 39.6886 21.6447C39.3292 21.2853 38.8417 21.0833 38.3333 21.0833H15.3333V19.1667C15.3333 18.6583 15.1314 18.1708 14.772 17.8114C14.4125 17.4519 13.925 17.25 13.4167 17.25C12.9083 17.25 12.4208 17.4519 12.0614 17.8114C11.7019 18.1708 11.5 18.6583 11.5 19.1667V21.0833H7.66667ZM5.75 34.5C5.75 33.9917 5.95193 33.5042 6.31138 33.1447C6.67082 32.7853 7.15833 32.5833 7.66667 32.5833H30.6667V30.6667C30.6667 30.1583 30.8686 29.6708 31.228 29.3114C31.5875 28.9519 32.075 28.75 32.5833 28.75C33.0917 28.75 33.5792 28.9519 33.9386 29.3114C34.2981 29.6708 34.5 30.1583 34.5 30.6667V32.5833H38.3333C38.8417 32.5833 39.3292 32.7853 39.6886 33.1447C40.0481 33.5042 40.25 33.9917 40.25 34.5C40.25 35.0083 40.0481 35.4958 39.6886 35.8553C39.3292 36.2147 38.8417 36.4167 38.3333 36.4167H34.5V38.3333C34.5 38.8417 34.2981 39.3292 33.9386 39.6886C33.5792 40.0481 33.0917 40.25 32.5833 40.25C32.075 40.25 31.5875 40.0481 31.228 39.6886C30.8686 39.3292 30.6667 38.8417 30.6667 38.3333V36.4167H7.66667C7.15833 36.4167 6.67082 36.2147 6.31138 35.8553C5.95193 35.4958 5.75 35.0083 5.75 34.5Z" fill="#434343"/>
</g>
<defs>
<clipPath id="clip0_5_30">
<rect width="46" height="46" fill="white"/>
</clipPath>
</defs>
</svg>
