<svg width="24" height="24" viewBox="0 0 24 24" fill="none" xmlns="http://www.w3.org/2000/svg">
<g clip-path="url(#clip0_7_111)">
<path fill-rule="evenodd" clip-rule="evenodd" d="M14.035 2.809C14.405 2.543 14.925 2.419 15.436 2.606C16.5224 3.00398 17.5314 3.58766 18.418 4.331C18.835 4.681 18.988 5.192 18.942 5.644C18.867 6.397 18.999 7.124 19.362 7.75C19.682 8.307 20.164 8.747 20.752 9.057L20.977 9.167C21.391 9.354 21.759 9.743 21.852 10.28C22.0495 11.4182 22.0495 12.5818 21.852 13.72C21.769 14.204 21.462 14.567 21.099 14.771L20.977 14.834C20.287 15.144 19.723 15.624 19.361 16.25C18.999 16.877 18.867 17.603 18.942 18.356C18.987 18.808 18.835 19.32 18.418 19.669C17.5314 20.4123 16.5224 20.996 15.436 21.394C15.2038 21.4771 14.9548 21.502 14.7107 21.4666C14.4667 21.4312 14.235 21.3366 14.036 21.191C13.42 20.75 12.723 20.5 12 20.5C11.277 20.5 10.58 20.749 9.96499 21.191C9.76584 21.3368 9.53399 21.4315 9.28975 21.4669C9.04551 21.5022 8.79632 21.4772 8.56399 21.394C7.47759 20.996 6.46859 20.4124 5.58199 19.669C5.39421 19.5095 5.2483 19.3064 5.15696 19.0776C5.06563 18.8487 5.03165 18.601 5.05799 18.356C5.13299 17.603 4.99999 16.876 4.63799 16.25C4.30829 15.6911 3.82612 15.2377 3.24799 14.943L3.02299 14.833C2.79734 14.7331 2.5996 14.5793 2.44707 14.3853C2.29454 14.1913 2.19185 13.9629 2.14799 13.72C1.95043 12.5818 1.95043 11.4182 2.14799 10.28C2.23099 9.796 2.53799 9.433 2.90099 9.229L3.02299 9.167C3.71299 8.856 4.27699 8.377 4.63899 7.75C4.99999 7.124 5.13299 6.397 5.05799 5.644C5.03165 5.39901 5.06563 5.15129 5.15696 4.92244C5.2483 4.69359 5.39421 4.49054 5.58199 4.331C6.4686 3.58766 7.4776 3.00398 8.56399 2.606C8.7962 2.52304 9.04518 2.49816 9.28921 2.53354C9.53325 2.56893 9.76491 2.6635 9.96399 2.809C10.579 3.251 11.276 3.5 12 3.5C12.724 3.5 13.42 3.251 14.035 2.809ZM14.992 4.578C14.126 5.148 13.105 5.5 12 5.5C10.895 5.5 9.87399 5.147 9.00799 4.578C8.31182 4.859 7.65873 5.23672 7.06799 5.7C7.12799 6.733 6.92299 7.793 6.37099 8.75C5.81799 9.706 5.00299 10.413 4.07799 10.878C3.97378 11.6217 3.97378 12.3763 4.07799 13.12C5.00299 13.585 5.81799 14.292 6.37099 15.25C6.92299 16.205 7.12799 17.265 7.06799 18.298C7.65867 18.7616 8.31177 19.1397 9.00799 19.421C9.87399 18.851 10.895 18.499 12 18.499C13.105 18.499 14.126 18.852 14.992 19.421C15.6881 19.14 16.3412 18.7623 16.932 18.299C16.872 17.265 17.077 16.205 17.629 15.249C18.181 14.292 18.997 13.585 19.922 13.119C20.0262 12.376 20.0262 11.622 19.922 10.879C18.997 10.413 18.182 9.706 17.629 8.749C17.077 7.793 16.872 6.733 16.932 5.699C16.3412 5.23572 15.6882 4.859 14.992 4.578ZM12 8C13.0609 8 14.0783 8.42143 14.8284 9.17158C15.5786 9.92172 16 10.9391 16 12C16 13.0609 15.5786 14.0783 14.8284 14.8284C14.0783 15.5786 13.0609 16 12 16C10.9391 16 9.92171 15.5786 9.17156 14.8284C8.42142 14.0783 7.99999 13.0609 7.99999 12C7.99999 10.9391 8.42142 9.92172 9.17156 9.17158C9.92171 8.42143 10.9391 8 12 8ZM12 10C11.4696 10 10.9608 10.2107 10.5858 10.5858C10.2107 10.9609 9.99999 11.4696 9.99999 12C9.99999 12.5304 10.2107 13.0391 10.5858 13.4142C10.9608 13.7893 11.4696 14 12 14C12.5304 14 13.0391 13.7893 13.4142 13.4142C13.7893 13.0391 14 12.5304 14 12C14 11.4696 13.7893 10.9609 13.4142 10.5858C13.0391 10.2107 12.5304 10 12 10Z" fill="white"/>
</g>
<defs>
<clipPath id="clip0_7_111">
<rect width="24" height="24" fill="white"/>
</clipPath>
</defs>
</svg>
