<svg width="29" height="29" viewBox="0 0 29 29" fill="none" xmlns="http://www.w3.org/2000/svg">
<g clip-path="url(#clip0_6_47)">
<path d="M24.4506 6.87058C24.9726 5.42662 23.5734 4.02737 22.1294 4.55058L4.48172 10.933C3.03293 11.4574 2.85772 13.4342 4.19051 14.2064L9.82376 17.4677L14.854 12.4374C15.0819 12.2173 15.3872 12.0955 15.704 12.0982C16.0208 12.101 16.3239 12.2281 16.5479 12.4521C16.7719 12.6761 16.899 12.9792 16.9018 13.296C16.9045 13.6128 16.7827 13.9181 16.5626 14.146L11.5323 19.1762L14.7948 24.8095C15.5658 26.1423 17.5426 25.9659 18.067 24.5183L24.4506 6.87058Z" fill="white"/>
</g>
<defs>
<clipPath id="clip0_6_47">
<rect width="29" height="29" fill="white"/>
</clipPath>
</defs>
</svg>
