<svg width="44" height="42" viewBox="0 0 44 42" fill="none" xmlns="http://www.w3.org/2000/svg">
<path fill-rule="evenodd" clip-rule="evenodd" d="M5.08333 0.666656C3.80145 0.666656 2.57208 1.17588 1.66565 2.08231C0.759225 2.98873 0.25 4.21811 0.25 5.49999V15.1667C0.25 16.4485 0.759225 17.6779 1.66565 18.5843C2.57208 19.4908 3.80145 20 5.08333 20H38.9167C40.1985 20 41.4279 19.4908 42.3344 18.5843C43.2408 17.6779 43.75 16.4485 43.75 15.1667V5.49999C43.75 4.21811 43.2408 2.98873 42.3344 2.08231C41.4279 1.17588 40.1985 0.666656 38.9167 0.666656H5.08333ZM5.08333 22.4167C3.80145 22.4167 2.57208 22.9259 1.66565 23.8323C0.759225 24.7387 0.25 25.9681 0.25 27.25V36.9167C0.25 38.1985 0.759225 39.4279 1.66565 40.3343C2.57208 41.2408 3.80145 41.75 5.08333 41.75H38.9167C40.1985 41.75 41.4279 41.2408 42.3344 40.3343C43.2408 39.4279 43.75 38.1985 43.75 36.9167V27.25C43.75 25.9681 43.2408 24.7387 42.3344 23.8323C41.4279 22.9259 40.1985 22.4167 38.9167 22.4167H5.08333ZM7.5 32.0833C7.5 31.4424 7.75461 30.8277 8.20783 30.3745C8.66104 29.9213 9.27573 29.6667 9.91667 29.6667H14.75C15.3909 29.6667 16.0056 29.9213 16.4588 30.3745C16.9121 30.8277 17.1667 31.4424 17.1667 32.0833C17.1667 32.7243 16.9121 33.339 16.4588 33.7922C16.0056 34.2454 15.3909 34.5 14.75 34.5H9.91667C9.27573 34.5 8.66104 34.2454 8.20783 33.7922C7.75461 33.339 7.5 32.7243 7.5 32.0833ZM9.91667 7.91666C9.27573 7.91666 8.66104 8.17127 8.20783 8.62448C7.75461 9.0777 7.5 9.69238 7.5 10.3333C7.5 10.9743 7.75461 11.589 8.20783 12.0422C8.66104 12.4954 9.27573 12.75 9.91667 12.75H14.75C15.3909 12.75 16.0056 12.4954 16.4588 12.0422C16.9121 11.589 17.1667 10.9743 17.1667 10.3333C17.1667 9.69238 16.9121 9.0777 16.4588 8.62448C16.0056 8.17127 15.3909 7.91666 14.75 7.91666H9.91667Z" fill="#FF48ED"/>
</svg>
