<svg width="29" height="29" viewBox="0 0 29 29" fill="none" xmlns="http://www.w3.org/2000/svg">
<g clip-path="url(#clip0_6_70)">
<path d="M25.5309 4.84783C25.6877 5.02696 25.8077 5.23523 25.884 5.46074C25.9603 5.68626 25.9914 5.92459 25.9756 6.16214C25.9598 6.39969 25.8973 6.63179 25.7918 6.8452C25.6862 7.0586 25.5397 7.24912 25.3605 7.40587L6.02716 24.3225C5.66535 24.6392 5.19258 24.7991 4.71285 24.7671C4.23313 24.7352 3.78574 24.514 3.46912 24.1522C3.15249 23.7903 2.99257 23.3176 3.02452 22.8378C3.05647 22.3581 3.27768 21.9107 3.63949 21.5941L22.9728 4.67745C23.152 4.52064 23.3602 4.40065 23.5857 4.32434C23.8113 4.24803 24.0496 4.2169 24.2871 4.23272C24.5247 4.24854 24.7568 4.31101 24.9702 4.41655C25.1836 4.52209 25.3741 4.66864 25.5309 4.84783ZM25.5309 12.551C25.6877 12.7301 25.8077 12.9384 25.884 13.1639C25.9603 13.3894 25.9914 13.6277 25.9756 13.8653C25.9598 14.1028 25.8973 14.3349 25.7918 14.5483C25.6862 14.7617 25.5397 14.9522 25.3605 15.109L14.8299 24.3225C14.4673 24.6336 13.9966 24.789 13.5201 24.7549C13.0436 24.7207 12.5998 24.4999 12.2853 24.1403C11.9708 23.7807 11.811 23.3115 11.8406 22.8347C11.8702 22.3579 12.0868 21.912 12.4434 21.5941L22.9728 12.3806C23.152 12.2238 23.3602 12.1038 23.5857 12.0275C23.8113 11.9512 24.0496 11.92 24.2871 11.9358C24.5247 11.9517 24.7568 12.0141 24.9702 12.1197C25.1836 12.2252 25.3741 12.3718 25.5309 12.551ZM25.5309 19.6499C25.8265 19.9874 25.9865 20.4226 25.9798 20.8713C25.9731 21.3199 25.8002 21.7501 25.4946 22.0787L25.3605 22.2079L22.9438 24.3225C22.5943 24.6296 22.1401 24.7905 21.6752 24.7719C21.2103 24.7533 20.7703 24.5567 20.4464 24.2227C20.1225 23.8887 19.9395 23.4429 19.9352 22.9777C19.9308 22.5124 20.1056 22.0634 20.4232 21.7234L20.5562 21.5941L22.9728 19.4795C23.152 19.3227 23.3602 19.2027 23.5857 19.1264C23.8113 19.0501 24.0496 19.019 24.2871 19.0348C24.5247 19.0506 24.7568 19.1131 24.9702 19.2186C25.1836 19.3242 25.3741 19.4707 25.5309 19.6499ZM16.727 4.84783C16.8838 5.02688 17.0039 5.23509 17.0803 5.46056C17.1567 5.68603 17.188 5.92434 17.1723 6.16189C17.1566 6.39944 17.0942 6.63156 16.9888 6.845C16.8833 7.05845 16.7369 7.24903 16.5578 7.40587L6.02716 16.6194C5.66535 16.936 5.19258 17.096 4.71285 17.064C4.23313 17.0321 3.78574 16.8108 3.46912 16.449C3.15249 16.0872 2.99257 15.6145 3.02452 15.1347C3.05647 14.655 3.27768 14.2076 3.63949 13.891L14.1701 4.67745C14.5318 4.36112 15.0043 4.20137 15.4838 4.23332C15.9633 4.26527 16.4104 4.4863 16.727 4.84783ZM9.13137 4.84783C9.42703 5.18534 9.58698 5.62053 9.58028 6.06917C9.57359 6.51782 9.40072 6.94804 9.09512 7.27658L8.9622 7.40587L6.02595 9.97358C5.67603 10.2781 5.22269 10.4368 4.75926 10.4171C4.29583 10.3974 3.85758 10.2008 3.53474 9.86775C3.2119 9.53469 3.02903 9.09053 3.0238 8.62671C3.01856 8.16289 3.19134 7.71472 3.50658 7.37445L3.63949 7.24516L6.57454 4.67745C6.93625 4.36112 7.40877 4.20137 7.88822 4.23332C8.36768 4.26527 8.81483 4.4863 9.13137 4.84783Z" fill="white"/>
</g>
<defs>
<clipPath id="clip0_6_70">
<rect width="29" height="29" fill="white"/>
</clipPath>
</defs>
</svg>
