<svg width="29" height="29" viewBox="0 0 29 29" fill="none" xmlns="http://www.w3.org/2000/svg">
<path fill-rule="evenodd" clip-rule="evenodd" d="M25.375 7.25H3.625V10.875C4.26594 10.875 4.88063 11.1296 5.33384 11.5828C5.78705 12.036 6.04167 12.6507 6.04167 13.2917V18.125C6.04167 21.5422 6.04167 23.252 7.10379 24.3129C8.16471 25.375 9.8745 25.375 13.2917 25.375H15.7083C19.1267 25.375 20.8353 25.375 21.8962 24.3129C22.9595 23.252 22.9595 21.5422 22.9595 18.125V13.2917C22.9595 12.6507 23.2142 12.036 23.6674 11.5828C24.1206 11.1296 24.7353 10.875 25.3762 10.875L25.375 7.25ZM12.6875 13.2917C12.6875 12.9712 12.5602 12.6639 12.3336 12.4372C12.107 12.2106 11.7996 12.0833 11.4792 12.0833C11.1587 12.0833 10.8514 12.2106 10.6247 12.4372C10.3981 12.6639 10.2708 12.9712 10.2708 13.2917V19.3333C10.2708 19.6538 10.3981 19.9611 10.6247 20.1878C10.8514 20.4144 11.1587 20.5417 11.4792 20.5417C11.7996 20.5417 12.107 20.4144 12.3336 20.1878C12.5602 19.9611 12.6875 19.6538 12.6875 19.3333V13.2917ZM18.7292 13.2917C18.7292 12.9712 18.6019 12.6639 18.3753 12.4372C18.1486 12.2106 17.8413 12.0833 17.5208 12.0833C17.2004 12.0833 16.893 12.2106 16.6664 12.4372C16.4398 12.6639 16.3125 12.9712 16.3125 13.2917V19.3333C16.3125 19.6538 16.4398 19.9611 16.6664 20.1878C16.893 20.4144 17.2004 20.5417 17.5208 20.5417C17.8413 20.5417 18.1486 20.4144 18.3753 20.1878C18.6019 19.9611 18.7292 19.6538 18.7292 19.3333V13.2917Z" fill="white"/>
<path d="M12.1655 4.07208C12.3033 3.944 12.6066 3.83041 13.0295 3.74946C13.5148 3.66315 14.0071 3.62149 14.5 3.625C15.0317 3.625 15.5489 3.6685 15.9706 3.74946C16.3935 3.83041 16.6956 3.944 16.8345 4.07329" stroke="white" stroke-width="2" stroke-linecap="round"/>
</svg>
