<svg width="24" height="24" viewBox="0 0 24 24" fill="none" xmlns="http://www.w3.org/2000/svg">
<g clip-path="url(#clip0_81_13)">
<path fill-rule="evenodd" clip-rule="evenodd" d="M11.5 3.99998C8.85098 3.99998 6.73898 6.37998 7.02698 8.99998C7.05366 9.24258 6.99159 9.48664 6.85224 9.68702C6.71289 9.8874 6.5057 10.0305 6.26898 10.09C5.56191 10.2712 4.94508 10.7038 4.53389 11.3068C4.12269 11.9099 3.9453 12.6421 4.0349 13.3665C4.1245 14.0909 4.47495 14.7578 5.02069 15.2425C5.56643 15.7273 6.27008 15.9965 6.99998 16H7.99998C8.2652 16 8.51955 16.1053 8.70709 16.2929C8.89462 16.4804 8.99998 16.7348 8.99998 17C8.99998 17.2652 8.89462 17.5195 8.70709 17.7071C8.51955 17.8946 8.2652 18 7.99998 18H6.99998C5.85069 18.0007 4.73623 17.6055 3.84417 16.8809C2.95212 16.1563 2.33693 15.1464 2.10215 14.0214C1.86737 12.8963 2.02734 11.7247 2.55513 10.7038C3.08292 9.68288 3.94631 8.87494 4.99998 8.41598C5.01804 6.89991 5.56552 5.43785 6.54768 4.2828C7.52984 3.12775 8.88488 2.35237 10.3783 2.09085C11.8718 1.82932 13.4097 2.0981 14.7259 2.85067C16.0421 3.60325 17.0538 4.79226 17.586 6.21198C18.9853 6.59787 20.1973 7.4778 20.9976 8.68877C21.7979 9.89975 22.1323 11.3597 21.9387 12.7983C21.7452 14.2369 21.0369 15.5566 19.9449 16.513C18.853 17.4694 17.4515 17.9976 16 18C15.7348 18 15.4804 17.8946 15.2929 17.7071C15.1053 17.5195 15 17.2652 15 17C15 16.7348 15.1053 16.4804 15.2929 16.2929C15.4804 16.1053 15.7348 16 16 16C17.005 16.0015 17.9738 15.6246 18.7136 14.9443C19.4534 14.264 19.9099 13.3302 19.9925 12.3286C20.0751 11.3269 19.7775 10.3309 19.1591 9.53868C18.5407 8.74644 17.6467 8.21603 16.655 8.05298C16.464 8.0214 16.2862 7.93562 16.1426 7.80585C15.999 7.67608 15.8957 7.50778 15.845 7.32098C15.586 6.36706 15.0202 5.52495 14.2348 4.92471C13.4495 4.32447 12.4884 3.99949 11.5 3.99998ZM13 12.416L14.293 13.708C14.386 13.8008 14.4963 13.8744 14.6177 13.9246C14.7392 13.9748 14.8693 14.0006 15.0007 14.0005C15.1321 14.0004 15.2622 13.9745 15.3835 13.9241C15.5049 13.8737 15.6151 13.8 15.708 13.707C15.8008 13.614 15.8744 13.5036 15.9246 13.3822C15.9748 13.2608 16.0006 13.1307 16.0005 12.9993C16.0004 12.8679 15.9745 12.7378 15.9241 12.6164C15.8737 12.4951 15.8 12.3848 15.707 12.292L12.883 9.47298C12.6486 9.2391 12.3311 9.10774 12 9.10774C11.6689 9.10774 11.3513 9.2391 11.117 9.47298L8.29298 12.293C8.10534 12.4805 7.99987 12.7349 7.99978 13.0001C7.99968 13.2654 8.10497 13.5198 8.29248 13.7075C8.47999 13.8951 8.73436 14.0006 8.99963 14.0007C9.2649 14.0008 9.51934 13.8955 9.70698 13.708L11 12.416V21C11 21.2652 11.1053 21.5195 11.2929 21.7071C11.4804 21.8946 11.7348 22 12 22C12.2652 22 12.5196 21.8946 12.7071 21.7071C12.8946 21.5195 13 21.2652 13 21V12.416Z" fill="white"/>
</g>
<defs>
<clipPath id="clip0_81_13">
<rect width="24" height="24" fill="white"/>
</clipPath>
</defs>
</svg>
