<svg width="26" height="26" viewBox="0 0 26 26" fill="none" xmlns="http://www.w3.org/2000/svg">
<g clip-path="url(#clip0_7_164)">
<path d="M13 14.0834C15.5957 14.0834 17.9563 14.8352 19.6928 15.8947C20.5595 16.4234 21.3005 17.0474 21.8357 17.7255C22.3622 18.3918 22.75 19.1891 22.75 20.0417C22.75 20.9571 22.3048 21.6786 21.6634 22.1932C21.0568 22.6807 20.2562 23.0035 19.4058 23.2289C17.6963 23.6806 15.4148 23.8334 13 23.8334C10.5853 23.8334 8.30375 23.6817 6.59425 23.2289C5.74383 23.0035 4.94325 22.6807 4.33658 22.1932C3.69417 21.6775 3.25 20.9571 3.25 20.0417C3.25 19.1891 3.63783 18.3918 4.16433 17.7244C4.6995 17.0474 5.43942 16.4244 6.30717 15.8936C8.04375 14.8363 10.4054 14.0834 13 14.0834ZM13 2.16669C14.4366 2.16669 15.8143 2.73737 16.8302 3.75319C17.846 4.76901 18.4167 6.14676 18.4167 7.58335C18.4167 9.01994 17.846 10.3977 16.8302 11.4135C15.8143 12.4293 14.4366 13 13 13C11.5634 13 10.1857 12.4293 9.16984 11.4135C8.15402 10.3977 7.58333 9.01994 7.58333 7.58335C7.58333 6.14676 8.15402 4.76901 9.16984 3.75319C10.1857 2.73737 11.5634 2.16669 13 2.16669Z" fill="white"/>
</g>
<defs>
<clipPath id="clip0_7_164">
<rect width="26" height="26" fill="white"/>
</clipPath>
</defs>
</svg>
