<svg width="131" height="131" viewBox="0 0 131 131" fill="none" xmlns="http://www.w3.org/2000/svg">
<g clip-path="url(#clip0_64_9)">
<path d="M65.5 10.9167V46.3959C65.5001 48.4312 66.2583 50.3935 67.6267 51.9001C68.995 53.4068 70.8756 54.3498 72.9015 54.5451L73.6875 54.5834H109.167V109.167C109.168 111.921 108.127 114.574 106.255 116.593C104.382 118.612 101.815 119.85 99.0687 120.056L98.25 120.083H32.75C29.9958 120.084 27.3431 119.044 25.3237 117.171C23.3042 115.299 22.0672 112.732 21.8606 109.985L21.8333 109.167V21.8334C21.8324 19.0792 22.8726 16.4265 24.7453 14.407C26.618 12.3875 29.1848 11.1505 31.9312 10.944L32.75 10.9167H65.5ZM76.4166 11.1514C78.1818 11.5261 79.8265 12.3325 81.2036 13.4985L81.875 14.1153L105.968 38.2084C107.247 39.4862 108.189 41.0617 108.708 42.7934L108.926 43.6667H76.4166V11.1514Z" fill="white"/>
</g>
<defs>
<clipPath id="clip0_64_9">
<rect width="131" height="131" fill="white"/>
</clipPath>
</defs>
</svg>
