<svg width="131" height="131" viewBox="0 0 131 131" fill="none" xmlns="http://www.w3.org/2000/svg">
<g clip-path="url(#clip0_64_9)">
<path d="M65.5 10.9167V46.3958C65.5001 48.4311 66.2583 50.3935 67.6267 51.9001C68.9951 53.4068 70.8756 54.3497 72.9015 54.5451L73.6875 54.5833H109.167V109.167C109.168 111.921 108.127 114.574 106.255 116.593C104.382 118.612 101.815 119.849 99.0688 120.056L98.25 120.083H32.75C29.9959 120.084 27.3432 119.044 25.3237 117.171C23.3042 115.299 22.0672 112.732 21.8606 109.985L21.8333 109.167V21.8333C21.8325 19.0792 22.8726 16.4265 24.7453 14.407C26.6181 12.3875 29.1849 11.1505 31.9313 10.9439L32.75 10.9167H65.5ZM76.4167 11.1514C78.1818 11.5261 79.8265 12.3325 81.2036 13.4984L81.875 14.1152L105.968 38.2083C107.247 39.4862 108.189 41.0617 108.708 42.7933L108.927 43.6667H76.4167V11.1514Z" fill="#FF48ED"/>
</g>
<defs>
<clipPath id="clip0_64_9">
<rect width="131" height="131" fill="white"/>
</clipPath>
</defs>
</svg>
