<svg width="131" height="131" viewBox="0 0 131 131" fill="none" xmlns="http://www.w3.org/2000/svg">
<g clip-path="url(#clip0_64_3)">
<path d="M10.9167 27.2917C10.9167 24.3964 12.0668 21.6197 14.1141 19.5724C16.1613 17.5251 18.938 16.375 21.8333 16.375H51.9633C53.5995 16.3752 55.2148 16.7432 56.6896 17.4518C58.1645 18.1604 59.4611 19.1915 60.4838 20.4688L68.1254 30.0208H109.167C112.062 30.0208 114.839 31.171 116.886 33.2183C118.933 35.2655 120.083 38.0422 120.083 40.9375V103.708C120.083 106.604 118.933 109.38 116.886 111.428C114.839 113.475 112.062 114.625 109.167 114.625H21.8333C18.938 114.625 16.1613 113.475 14.1141 111.428C12.0668 109.38 10.9167 106.604 10.9167 103.708V27.2917Z" fill="#FF48ED"/>
</g>
<defs>
<clipPath id="clip0_64_3">
<rect width="131" height="131" fill="white"/>
</clipPath>
</defs>
</svg>
